<svg xmlns="http://www.w3.org/2000/svg" viewBox="0 0 432 445.52"><defs><style>.cls-1{fill:#231f20;}</style></defs><g id="Logo"><path class="cls-1" d="M280,349a8.87,8.87,0,0,1-2-3.53c6.2-1.86,14.23-7.24,14.23-18.84,0-6.39-2.12-11.41-6.29-14.93a22.1,22.1,0,0,0-9.66-4.47,15.33,15.33,0,0,0,3.43-10c0-4.27-1.45-7.92-3.28-12.55a112.15,112.15,0,0,1-6-18.92c-4.1-18.61-13.77-64.48-15.33-71.88a82.46,82.46,0,0,1,10.64-12.71c3.72-3.57,1.46-26.64,8.64-49.22,1.21-3.81,1.31-8,.76-8.51-7.69-6.52-7.46-22.92-9.35-29.32h0s-3.44-14.67,1.29-21.33,4.5-30.27,4.5-33.92a22.85,22.85,0,0,1,1.29-7.08s-5,.21-6,2.36-3.79,5.43-7,8.41S247.17,53.12,244,57s-5.21,6.36-5.21,6.36S221.71,62,216,62s-22.81,1.39-22.81,1.39-2-2.49-5.2-6.36-12.64-11.5-15.86-14.48-6-6.26-7-8.41-6-2.36-6-2.36a22.85,22.85,0,0,1,1.29,7.08c0,3.65-.21,27.27,4.51,33.92s1.29,21.33,1.29,21.33h0c-1.89,6.4-1.66,22.8-9.35,29.32-.55.47-.45,4.7.76,8.51,7.18,22.58,4.92,45.65,8.64,49.22a82.46,82.46,0,0,1,10.64,12.71c-1.56,7.4-11.23,53.27-15.33,71.88a112.15,112.15,0,0,1-6,18.92c-1.83,4.63-3.28,8.28-3.28,12.55a15.33,15.33,0,0,0,3.43,10,22.1,22.1,0,0,0-9.66,4.47c-4.17,3.52-6.29,8.54-6.29,14.93,0,11.6,8,17,14.22,18.84a8.72,8.72,0,0,1-2,3.53c-3.33,3.67-10,5.61-19.35,5.61h-3.5v59.2H302.82v-59.2h-3.5C290,354.59,283.3,352.65,280,349ZM259.6,59.48c1.29-5.8,7.73-16.27,7.73-16.27s.16,14.66-.8,20.13-7.89,11.92-7.89,11.92S258.32,65.27,259.6,59.48Zm-94.15,3.86c-1-5.47-.81-20.13-.81-20.13s6.44,10.47,7.73,16.27,1,15.78,1,15.78S166.41,68.82,165.45,63.34Zm7,112.17c-1.7-2.81-5.25-44.85-6.1-48.25-.61-2.47,6.86-23.1,11-34.27l9.46-17.76a5.85,5.85,0,0,1,4.64-3.09c6.23-.56,19.3-1.69,24.49-1.69s18.38,1.13,24.63,1.7a5.86,5.86,0,0,1,4.62,3l8.48,15.52c3.87,10.33,12.54,33.92,11.88,36.57-.85,3.4-4.4,45.44-6.1,48.25s-10.91,13.71-14.6,19.66a88,88,0,0,0-5.73,12,64.67,64.67,0,0,1-3.57-26.48,98.26,98.26,0,0,0-2.53,19.72,143,143,0,0,0,1.74,22.26h0s8.11,3.07,8,11.19c-.18,15.69-6.33,13-8.3,14.81,0,0-.43,9.34-3.08,10.66-7,3.5-11.57,1.42-15.45,1.42s-8.46,2.08-15.45-1.42c-2.65-1.32-3.08-10.66-3.08-10.66-2-1.83-8.12.88-8.3-14.81-.1-8.12,8-11.19,8-11.19h0a143,143,0,0,0,1.74-22.26,98.26,98.26,0,0,0-2.53-19.72,64.67,64.67,0,0,1-3.57,26.48,88,88,0,0,0-5.73-12C183.4,189.22,174.19,178.31,172.49,175.51ZM295.82,406.79H136.18V361.5c9.85-.5,17-3.19,21.22-8a14.91,14.91,0,0,0,3.86-11.24l-.35-2.72-2.72-.31c-.47,0-11.39-1.42-11.39-12.6,0-4.28,1.24-7.41,3.79-9.57,5.21-4.4,14.37-3.66,16.94-3.35l.9.12,1-6.93-.78-.11c-2.12-.38-9.3-2.19-9.3-9.6,0-2.93,1.11-5.73,2.79-10a119.72,119.72,0,0,0,6.29-20c3.38-15.35,10.54-49.17,13.83-64.77a115.62,115.62,0,0,1,8,17.26c-2.12,3.95-8.78,2.95-8.78,12.61,0,20.25,10.2,17.6,10.2,19.87s.72,9.27,3.4,11.43c5.11,4.11,15.7,2.56,21,2.56s15.87,1.55,21-2.56c2.68-2.16,3.4-9.16,3.4-11.43s10.2.38,10.2-19.87c0-9.67-6.66-8.67-8.78-12.61a115.62,115.62,0,0,1,8-17.26c3.29,15.6,10.45,49.42,13.83,64.77a119.72,119.72,0,0,0,6.29,20c1.68,4.24,2.79,7,2.79,10,0,7.4-7.1,9.22-9.31,9.6l-.77.11,1,6.93.9-.12c2.57-.31,11.73-1.05,16.94,3.35,2.55,2.16,3.79,5.29,3.79,9.57,0,10.87-10.24,12.46-11.39,12.6l-2.72.31-.35,2.72a14.91,14.91,0,0,0,3.86,11.24c4.24,4.83,11.37,7.52,21.22,8Z"/><path class="cls-1" d="M133.53,225.47c48.37-76.81-17.2-88.93-36.25-84.64-9.15,2.06-28.83,6.3-32.32,7.74s-5.57,2.48-7.75,4.91-2.36,3.07-3.58,3.76-6.44,1.4-8.46,2.77-.43,6,.73,7.93,9,5.75,9,5.75a38.29,38.29,0,0,1-4.83-3.87c-1.15-1.43-.8-1.87-.8-1.87l4.08-.22a53.48,53.48,0,0,0,4.4,3.63,16.55,16.55,0,0,0,3.95,1.81s-3.88-2.84-4.13-4.51,1.64-2.27,2.79-2.41,17.2-1,17.2-1-.35,1.41-2.84,2.85a49.79,49.79,0,0,0-7.66,5.14c-2.31,2-7.5,8.51-8.87,9.77-2.31,2.13-10.13,2.15-10.13,2.15s5.31.58,7.72,0a8.92,8.92,0,0,1-4.68,2.73,23.68,23.68,0,0,1-4.82.22s5.12,1.45,8.26-.71,10.12-10,12.87-12.63S76,169,76.82,168.55s7.41-2.81,7.44-2.34a28.59,28.59,0,0,1-5.37,13c-4.42,5.83-5,7.71-6.81,7.41a11.78,11.78,0,0,1-5.17-3.07l-.84-.9s3.59,4.46,3.8,4.68-.63.75-2.14.55-6.27-3.76-6.27-3.76,4.26,5.84,7.6,6.41,6.68.47,9.18-2,15.5-28.37,24.86-29.38c22.14-2.4,44.14,11.69,13.17,61.85-10.32,16.7-12.93,47.63,7.48,65.82,10.41,9.28,27,18.5,27,18.5C115.38,270.12,118.79,248.86,133.53,225.47ZM74.21,158.74c-4.69,2.06-10.26.58-13.43.8.34-.41.78-.93,1.38-1.61,1.17-1.3,2.12-1.87,5.35-3.2,2.5-1,7-2,14.64-3.69C82.15,151,76.74,157.63,74.21,158.74Zm44.86,112.54c-7.37-15.71-4.09-35.54,2.86-46.81C137,200,141.68,181,135.77,167.82c-3.57-7.95-10.94-13.27-20.75-15a45.27,45.27,0,0,0-12.64-.32c-4.44.48-8.63,3.45-12.69,7.88,0,0,5.32-9.1,11.58-12.11,2.79-1.35,6.17-1.93,13-.73,6.37,1.11,21.82,5.12,27.63,18.21s.91,32.42-14,56.16C118,237.71,112.91,253.14,119.07,271.28Z"/><path class="cls-1" d="M386.83,160c-2-1.37-7.24-2.07-8.46-2.77s-1.4-1.33-3.58-3.76-4.25-3.46-7.75-4.91-23.17-5.68-32.32-7.74c-19.05-4.29-84.62,7.83-36.25,84.64,14.74,23.39,18.15,44.65-17.26,79.83,0,0,16.63-9.22,27-18.5,20.41-18.19,17.8-49.12,7.48-65.82-31-50.16-9-64.25,13.17-61.85,9.36,1,22.35,26.92,24.86,29.38s5.85,2.56,9.18,2,7.6-6.41,7.6-6.41-4.76,3.57-6.27,3.76-2.35-.32-2.14-.55,3.8-4.68,3.8-4.68l-.84.9a11.78,11.78,0,0,1-5.17,3.07c-1.82.3-2.39-1.58-6.81-7.41a28.59,28.59,0,0,1-5.37-13c0-.47,6.63,1.88,7.44,2.34s6.63,3.61,9.38,6.23,9.73,10.46,12.87,12.63,8.26.71,8.26.71a23.68,23.68,0,0,1-4.82-.22,8.92,8.92,0,0,1-4.68-2.73c2.41.55,7.72,0,7.72,0s-7.82,0-10.13-2.15c-1.37-1.26-6.56-7.76-8.87-9.77a49.79,49.79,0,0,0-7.66-5.14c-2.49-1.44-2.84-2.85-2.84-2.85s16,.88,17.2,1,3,.74,2.79,2.41-4.13,4.51-4.13,4.51a16.55,16.55,0,0,0,4-1.81,53.48,53.48,0,0,0,4.4-3.63l4.08.22s.35.44-.8,1.87a38.29,38.29,0,0,1-4.83,3.87s7.88-3.8,9-5.75S388.86,161.38,386.83,160Zm-57.21-7.5a45.27,45.27,0,0,0-12.64.32c-9.81,1.72-17.18,7-20.75,15C290.32,181,295,200,310.07,224.47c6.95,11.27,10.23,31.1,2.86,46.81,6.16-18.14,1.12-33.57-8.82-49.36-14.95-23.74-19.81-43.16-14-56.16s21.26-17.1,27.63-18.21c6.86-1.2,10.24-.62,13,.73,6.26,3,11.58,12.11,11.58,12.11C338.25,156,334.06,153,329.62,152.51Zm28.17,6.23c-2.53-1.11-7.94-7.7-7.94-7.7,7.62,1.69,12.14,2.67,14.64,3.69,3.23,1.33,4.18,1.9,5.35,3.2.6.68,1,1.2,1.38,1.61C368.05,159.32,362.48,160.8,357.79,158.74Z"/><polygon class="cls-1" points="204.02 122.1 192.1 110.37 204.02 134.2 204.02 122.1"/><polygon class="cls-1" points="227.98 122.1 227.98 134.2 239.9 110.37 227.98 122.1"/><path class="cls-1" d="M203.59,227.51s-1.84-.75-3.66,5.57-1.5,11.57,1.82,14.15,6.19-.45,6.22-3.16c0-3.06-3.05-5.79-4.38-8.52C202.55,233.39,203.59,227.51,203.59,227.51Z"/><path class="cls-1" d="M230.25,247.23c3.32-2.58,3.64-7.83,1.82-14.15s-3.66-5.57-3.66-5.57,1,5.88,0,8c-1.33,2.73-4.42,5.46-4.38,8.52C224.06,246.78,226.93,249.8,230.25,247.23Z"/><path class="cls-1" d="M193.65,158.5s-2.41-11.77-9.57-18.74c0,.18,0,.35,0,.54a20.21,20.21,0,0,1-2.09,9.08,20.34,20.34,0,0,1-2.08-9.08,21.29,21.29,0,0,1,.34-3.79,131.17,131.17,0,0,0-13.9-9.57S172.08,142,177,147.63a20.5,20.5,0,0,0,11.72,6.9C190,154.71,193.65,158.5,193.65,158.5Z"/><path class="cls-1" d="M243.24,154.53a20.5,20.5,0,0,0,11.72-6.9c5-5.61,10.68-20.69,10.68-20.69a131.17,131.17,0,0,0-13.9,9.57,21.29,21.29,0,0,1,.34,3.79,20.34,20.34,0,0,1-2.08,9.08,20.21,20.21,0,0,1-2.09-9.08c0-.19,0-.36,0-.54-7.16,7-9.57,18.74-9.57,18.74S242.05,154.71,243.24,154.53Z"/><polygon class="cls-1" points="156.22 390.31 169.9 372.57 169.9 369.24 148.9 369.24 148.9 374.32 161.55 374.32 161.55 374.46 147.63 392.24 147.63 395.53 170.17 395.53 170.17 390.45 156.22 390.45 156.22 390.31"/><path class="cls-1" d="M181.81,369.24,173,395.53h6.54l2.09-7h8.5l2.32,7h6.88l-9.2-26.29Zm.81,14.71,1.78-5.61c.47-1.53.87-3.28,1.29-4.76h.08c.45,1.47.95,3.21,1.47,4.75l1.89,5.62Z"/><polygon class="cls-1" points="220.97 379.21 209.68 379.21 209.68 369.24 203.46 369.24 203.46 395.53 209.68 395.53 209.68 384.53 220.97 384.53 220.97 395.53 227.19 395.53 227.19 369.24 220.97 369.24 220.97 379.21"/><path class="cls-1" d="M239.85,369.24l-8.8,26.29h6.54l2.09-7h8.5l2.33,7h6.88l-9.21-26.29Zm.8,14.71,1.78-5.61c.47-1.53.87-3.28,1.29-4.76h.08c.45,1.47.95,3.21,1.47,4.75l1.89,5.62Z"/><path class="cls-1" d="M267.74,380.79h-.09V369.24h-6.16v26.29h6.16V387l2.58-2.95,7.35,11.49h7.36l-10.22-15.19,9.63-11.1h-7.86l-6.77,8.87C269.07,379,268.37,379.84,267.74,380.79Z"/></g></svg>